<svg xmlns="http://www.w3.org/2000/svg" viewBox="0 0 32 32" fill="#1c8c5a">
  <path d="M16 16 C 12.4 10.5, 12.4 5.4, 16 3.4 C 19.6 5.4, 19.6 10.5, 16 16 Z" transform="rotate(0 16 16)" />
  <path d="M16 16 C 12.4 10.5, 12.4 5.4, 16 3.4 C 19.6 5.4, 19.6 10.5, 16 16 Z" transform="rotate(60 16 16)" />
  <path d="M16 16 C 12.4 10.5, 12.4 5.4, 16 3.4 C 19.6 5.4, 19.6 10.5, 16 16 Z" transform="rotate(120 16 16)" />
  <path d="M16 16 C 12.4 10.5, 12.4 5.4, 16 3.4 C 19.6 5.4, 19.6 10.5, 16 16 Z" transform="rotate(180 16 16)" />
  <path d="M16 16 C 12.4 10.5, 12.4 5.4, 16 3.4 C 19.6 5.4, 19.6 10.5, 16 16 Z" transform="rotate(240 16 16)" />
  <path d="M16 16 C 12.4 10.5, 12.4 5.4, 16 3.4 C 19.6 5.4, 19.6 10.5, 16 16 Z" transform="rotate(300 16 16)" />
</svg>
